<svg id="_Layer_" data-name="&lt;Layer&gt;" xmlns="http://www.w3.org/2000/svg" xmlns:xlink="http://www.w3.org/1999/xlink" viewBox="0 0 2760 1840"><defs><style>.cls-1{fill:none;}.cls-2{clip-path:url(#clip-path);}.cls-3{fill:#daebe8;}.cls-4{fill:#ffb27d;}.cls-5{fill:#f59a6d;}.cls-6{fill:#331832;}.cls-7{fill:#73b3ce;}.cls-8{fill:#6da49a;}.cls-9{fill:#366f90;}.cls-10{fill:#ef8062;}.cls-11{fill:#b8d5dc;}</style><clipPath id="clip-path"><ellipse class="cls-1" cx="1421.12" cy="902.9" rx="802.51" ry="788.87"/></clipPath></defs><g class="cls-2"><ellipse class="cls-3" cx="1424.63" cy="899.74" rx="802.51" ry="788.87"/><path class="cls-4" d="M1487.1,393.62h0C1544,440.6,1370.55,646,1370.55,646c-33.1,45.56-81.74,43.36-121.53,9.93C1192.84,608.73,1417.74,343.83,1487.1,393.62Z"/><path class="cls-4" d="M1534.23,539.85h0c60.44,42.36-158,310.33-158,310.33-29.41,48-16.4.13-58.7-30.06C1257.83,777.48,1465.7,497.45,1534.23,539.85Z"/><path class="cls-4" d="M1563.48,719.81h0c42.7,29.23-83.73,199.07-83.73,199.07-24.49,36.26-62.31,35.85-94.09,11C1340.78,894.7,1508.29,683,1563.48,719.81Z"/><path class="cls-4" d="M1306.52,280.93h0c65.26,34.46-62.94,270.78-62.94,270.78-23.18,51.33-71.26,59-117,34.37C1062,551.25,1228.5,246.24,1306.52,280.93Z"/><path class="cls-4" d="M1511.72,872.56s-46,64.52-34,165c4.4,36.5,6.21,126.61-6,159.18-8.83,23.54-16.86,36.45-24,44.91-10.91,13-19.61,15.48-25.59,29.9-16.77,40.41-13.87,178.91-14.12,276.29-.11,37.34-517.68,32.55-516.27,3.39h0c.93-19.72,1.91-40,2.88-60.14.11-2.16.22-4.33.32-6.48.89-18.55,1.77-37,2.64-54.82,1-20.5,1.92-40.21,2.8-58.42.1-2.06.2-4.08.29-6.08.38-7.92.75-15.55,1.1-22.78q.18-4.08.37-8c.26-5.1.48-10,.7-14.65q.33-6.37.83-13c3.15-42.21,9.9-91.94-21.94-148.32a230,230,0,0,1-17.22-38.79c-7.73-22.62-12.61-46.94-15.56-72.37-.21-1.69-.4-3.38-.58-5.08-7.09-66.47-1.74-140.12-.63-210.38.86-54.09,8.91-155.77,17-192.61,3-13.52,2.68-39.62,3.24-68.16.71-36.4,2.77-76.76,14.6-100,5.56-10.92,13.25-18.1,24-19.35,91-10.7,66.14,122.45,83.36,187.48S1511.72,872.56,1511.72,872.56Z"/><path class="cls-5" d="M1194,1290.16a4.4,4.4,0,0,0,3.57-2.13c.71-1.16,17.4-28.88,20.81-71.38a186.17,186.17,0,0,0-9-73.89c-9.95-30-27.63-58.79-52.57-85.62a4.41,4.41,0,0,0-6.39-.17,4.8,4.8,0,0,0-.08,6.63c24,25.82,41,53.44,50.49,82.11a176.53,176.53,0,0,1,8.55,70c-3.24,40.25-19.3,66.91-19.46,67.18a4.82,4.82,0,0,0,1.42,6.48A4.38,4.38,0,0,0,1194,1290.16Z"/><path class="cls-6" d="M1442.92,1203l-347.45,32.72a55.56,55.56,0,0,1-60.52-50.11L973.44,532.39a55.57,55.57,0,0,1,50.11-60.53L1371,439.15a55.54,55.54,0,0,1,60.52,50.1L1493,1142.44A55.56,55.56,0,0,1,1442.92,1203Z"/><path class="cls-3" d="M1440.17,1187.37l-344.9,32.47a43.62,43.62,0,0,1-47.52-39.34l-61-647.9a43.61,43.61,0,0,1,39.34-47.51L1371,452.61A43.62,43.62,0,0,1,1418.5,492l61,647.9A43.63,43.63,0,0,1,1440.17,1187.37Z"/><rect class="cls-6" x="1150.75" y="461.65" width="96.55" height="24.83" rx="8.28" transform="translate(-39.16 114.5) rotate(-5.38)"/><rect class="cls-7" x="1016" y="518.62" width="186.61" height="205.7" rx="30.62" transform="translate(-50.54 100.37) rotate(-5.07)"/><path class="cls-7" d="M1388.78,699.07,1259,710.57A28.16,28.16,0,0,1,1228.47,685l-13.19-148.77a28.16,28.16,0,0,1,25.57-30.55l129.76-11.51a28.17,28.17,0,0,1,30.55,25.58l13.19,148.77A28.17,28.17,0,0,1,1388.78,699.07Z"/><path class="cls-7" d="M1204.13,941.21l-129.76,11.5a28.16,28.16,0,0,1-30.55-25.57l-13.19-148.77a28.17,28.17,0,0,1,25.58-30.55L1186,736.31a28.18,28.18,0,0,1,30.55,25.58l13.19,148.77A28.17,28.17,0,0,1,1204.13,941.21Z"/><path class="cls-7" d="M1224.85,1165.41l-129.76,11.5a28.18,28.18,0,0,1-30.55-25.58l-13.19-148.77A28.18,28.18,0,0,1,1076.93,972l129.76-11.5a28.17,28.17,0,0,1,30.55,25.58l13.19,148.77A28.18,28.18,0,0,1,1224.85,1165.41Z"/><path class="cls-7" d="M1430.36,1146.31l-129.77,11.5a28.19,28.19,0,0,1-30.55-25.58l-13.18-148.77a28.17,28.17,0,0,1,25.57-30.55l129.76-11.5A28.17,28.17,0,0,1,1442.74,967l13.19,148.77A28.18,28.18,0,0,1,1430.36,1146.31Z"/><path class="cls-8" d="M1495.77,1545.52c-13.88-42.11-27.16-82.41-37.85-114.79-13.75-41.73-23.17-70.33-24-72.76-4.67-14.41-8.26-23.52-10.44-25.76-2.81-2.89-6.91-4.46-11.41-5.2-1-.17-2.09-.3-3.17-.39h0A72.69,72.69,0,0,0,1390,1328c-2.83.52-4.62,1-4.62,1-1.57.34-3.19.68-4.82,1.07a2.24,2.24,0,0,0-.57.13c-32.15,7.39-72.16,20.9-117.92,29.49a435.64,435.64,0,0,1-68.71,7.72h0a334.53,334.53,0,0,1-97.18-11.19c-1.3-.34-2.59-.7-3.88-1.07q-10.38-2.92-20.42-5.53-12.18-3.16-23.84-5.86l-5.4-1.23q-7.79-1.74-15.31-3.27-24.84-5.07-46.81-7.87h0c-1.68-.22-3.36-.42-5-.62a422.07,422.07,0,0,0-43.17-3.1h0q-10.2-.18-19.33.31h0l-3.14.19q-3.76.24-7.33.6c-3.4.33-6.67.77-9.79,1.26h0c-4.47.71-8.65,1.56-12.51,2.57-.71.18-1.39.37-2.08.56H878l-2.7.81h0c-17.3,5.44-27.61,14.24-29.64,26.07,0,.37-.16,1.5-.26,3.36,0,.76-.1,1.66-.16,2.68,0,.59-.08,1.24-.12,1.92-.09,1.53,0,20.76.08,51.85,0,1.8,0,3.65,0,5.53.07,16.75.15,36.57.25,58.66.17,39.46.39,86.19.6,135.62q.06,12.11.11,24.39c.09,21,.17,42.4.26,63.77,218.78-6.81,465.2-13.85,614.52-3.93q43.6,2.9,84.13,5.54l4-1.9C1533.37,1659.67,1514.05,1601,1495.77,1545.52Z"/><path class="cls-5" d="M1379.54,1287.18a4.53,4.53,0,0,0,.81-.12c39-9.22,60.39-28,71.48-42,12.22-15.52,15-28.91,15.12-29.48a4.75,4.75,0,0,0-3.51-5.58,4.45,4.45,0,0,0-5.34,3.55h0c0,.12-2.62,12.13-13.66,26-10.22,12.81-30,29.87-66.21,38.44a4.71,4.71,0,0,0,1.31,9.26Z"/><path class="cls-5" d="M906.27,555c-6.86,13.15-24.07,16.17-38.25,16.21.71-36.4,2.77-76.76,14.6-100C904.58,486,916.9,534.57,906.27,555Z"/><path class="cls-9" d="M1678.83,990a11.66,11.66,0,0,1-11.54-10.12l-2.18-16.23a9.72,9.72,0,0,0-6.71-8c-1-.31-1.93-.62-2.87-1a9.68,9.68,0,0,0-10.35,2.59l-11.82,12.83a11.67,11.67,0,0,1-16.49.67L1603,958a11.67,11.67,0,0,1-.67-16.49l10.15-11a9.74,9.74,0,0,0,1.38-11.29l-.08-.14a9.75,9.75,0,0,0-9.83-5L1590.06,916a11.66,11.66,0,0,1-13.12-10l-2.52-18.63a11.66,11.66,0,0,1,10-13.12l14-1.88a9.73,9.73,0,0,0,8.17-7.38l0-.14a9.75,9.75,0,0,0-4.29-10.53l-12.71-7.93a11.69,11.69,0,0,1-3.71-16.09l10-15.94a11.67,11.67,0,0,1,16.09-3.71l14.78,9.25a9.67,9.67,0,0,0,10.66-.22c.82-.58,1.67-1.14,2.53-1.69a9.77,9.77,0,0,0,4.35-9.51l-2.18-16.22a11.68,11.68,0,0,1,10-13.12l18.62-2.51a11.69,11.69,0,0,1,13.12,10l1.62,12.07a9.76,9.76,0,0,0,8.17,8.31,78.39,78.39,0,0,1,10.41,2.49,9.81,9.81,0,0,0,10.14-2.66l10.48-11.36a11.69,11.69,0,0,1,16.49-.66L1755,807.54a11.68,11.68,0,0,1,.67,16.5l-7.42,8a9.68,9.68,0,0,0-1.22,11.55c.46.76.9,1.56,1.34,2.36a9.69,9.69,0,0,0,9.79,4.89l9.84-1.32a11.69,11.69,0,0,1,13.11,10l2.51,18.62a11.69,11.69,0,0,1-10,13.13l-9.83,1.31a9.75,9.75,0,0,0-8.16,7.32c-.2.89-.42,1.78-.67,2.66a9.67,9.67,0,0,0,4.23,10.79l9.28,5.8a11.65,11.65,0,0,1,3.71,16.07l-10,15.94a11.66,11.66,0,0,1-16.08,3.71L1733,946.73a9.84,9.84,0,0,0-10.5.13,78.25,78.25,0,0,1-9.36,5.15,9.72,9.72,0,0,0-5.67,10.17l1.62,12.06a11.68,11.68,0,0,1-10,13.13l-18.64,2.5A11.82,11.82,0,0,1,1678.83,990Zm-26.51-37.81a11.67,11.67,0,0,1,3.85.66c.93.33,1.87.64,2.81.94a11.69,11.69,0,0,1,8,9.61l2.18,16.22a9.72,9.72,0,0,0,10.93,8.36l18.64-2.5a9.73,9.73,0,0,0,8.35-11l-1.62-12.06a11.65,11.65,0,0,1,6.78-12.19,76.57,76.57,0,0,0,9.13-5,11.75,11.75,0,0,1,12.56-.14l13.12,8.19a9.73,9.73,0,0,0,13.41-3.1l10-15.93a9.72,9.72,0,0,0-3.1-13.41l-9.27-5.79A11.62,11.62,0,0,1,1753,902.1q.36-1.29.66-2.58a11.66,11.66,0,0,1,9.79-8.81l9.83-1.31a9.76,9.76,0,0,0,8.35-10.95l-2.51-18.62a9.76,9.76,0,0,0-10.94-8.36l-9.83,1.32a11.64,11.64,0,0,1-11.75-5.88c-.42-.77-.85-1.55-1.31-2.3a11.59,11.59,0,0,1,1.47-13.85l7.41-8a9.74,9.74,0,0,0-.56-13.76l-13.81-12.74a9.74,9.74,0,0,0-13.75.55l-10.49,11.36a11.75,11.75,0,0,1-12.14,3.2,76,76,0,0,0-10.15-2.43,11.68,11.68,0,0,1-9.77-10l-1.62-12.06a9.74,9.74,0,0,0-10.94-8.35L1652.33,781A9.73,9.73,0,0,0,1644,792l2.18,16.22a11.69,11.69,0,0,1-5.23,11.4c-.83.54-1.66,1.08-2.46,1.65a11.59,11.59,0,0,1-12.79.27l-14.79-9.24a9.73,9.73,0,0,0-13.42,3.08l-10,15.95a9.75,9.75,0,0,0,3.09,13.42l12.72,7.93a11.71,11.71,0,0,1,5.15,12.62l0,.14a11.7,11.7,0,0,1-9.8,8.85l-14,1.88a9.73,9.73,0,0,0-8.35,10.94l2.52,18.64a9.73,9.73,0,0,0,10.94,8.35l13.93-1.88a11.67,11.67,0,0,1,11.76,5.9,2.36,2.36,0,0,1,.13.23,11.66,11.66,0,0,1-1.67,13.49l-10.15,11a9.71,9.71,0,0,0,.56,13.76l13.82,12.74a9.73,9.73,0,0,0,13.75-.56l11.83-12.83A11.65,11.65,0,0,1,1652.32,952.16Z"/><path class="cls-9" d="M1682.33,926.26c-20.66,0-44.58-20.48-47.44-41.78-1.41-10.45,2.31-21.12,10.47-30a49.2,49.2,0,0,1,29.21-15.52c10.35-1.4,20.87,2.65,29.63,11.38a53.44,53.44,0,0,1,15.07,30.08,41.83,41.83,0,0,1-7.06,30,37.57,37.57,0,0,1-26,15.65h0A29.74,29.74,0,0,1,1682.33,926.26Zm-3.75-85.66a27.83,27.83,0,0,0-3.76.25,47.16,47.16,0,0,0-28,14.91c-7.76,8.48-11.31,18.59-10,28.46,2.92,21.75,28.68,42.62,49.18,39.86h0a35.67,35.67,0,0,0,24.64-14.85,39.94,39.94,0,0,0,6.72-28.58,52.18,52.18,0,0,0-14.52-29C1695.58,844.45,1687.09,840.6,1678.58,840.6Z"/><path class="cls-10" d="M1989.17,863.31l-1.47-10.92a6.27,6.27,0,0,0-7-5.39l-5.77.77a6.22,6.22,0,0,1-6.32-3.16c-.25-.46-.5-.92-.78-1.37a6.28,6.28,0,0,1,.8-7.44l4.34-4.71a6.28,6.28,0,0,0-.36-8.87l-8.1-7.48a6.28,6.28,0,0,0-8.87.36l-6.15,6.66a6.29,6.29,0,0,1-6.53,1.72,44.87,44.87,0,0,0-6-1.44,6.31,6.31,0,0,1-5.25-5.36l-1-7.08a6.27,6.27,0,0,0-7.05-5.38l-10.93,1.47a6.27,6.27,0,0,0-5.38,7l1.29,9.52a6.3,6.3,0,0,1-2.82,6.13c-.49.32-1,.64-1.46,1a6.27,6.27,0,0,1-6.88.14l-8.67-5.42a6.27,6.27,0,0,0-8.65,2l-5.85,9.35a6.29,6.29,0,0,0,2,8.65l7.45,4.66a6.26,6.26,0,0,1,2.77,6.78s0,.06,0,.09a6.29,6.29,0,0,1-5.27,4.76l-8.18,1.09a6.29,6.29,0,0,0-5.39,7.06l1.48,10.93a6.27,6.27,0,0,0,7.05,5.39l8.17-1.11a6.24,6.24,0,0,1,6.34,3.2.41.41,0,0,1,0,.09,6.26,6.26,0,0,1-.89,7.27l-5.95,6.46a6.28,6.28,0,0,0,.36,8.87l8.11,7.47a6.26,6.26,0,0,0,8.86-.36l6.94-7.52a6.23,6.23,0,0,1,6.67-1.67l1.67.55a6.28,6.28,0,0,1,4.33,5.17l1.27,9.51a6.28,6.28,0,0,0,7.06,5.39l10.92-1.46a6.28,6.28,0,0,0,5.39-7.06l-1-7.08a6.29,6.29,0,0,1,3.65-6.55,45.1,45.1,0,0,0,5.42-3,6.29,6.29,0,0,1,6.76-.07l7.69,4.8a6.28,6.28,0,0,0,8.65-2l5.84-9.34a6.27,6.27,0,0,0-2-8.65l-5.44-3.4a6.26,6.26,0,0,1-2.73-7c.14-.51.27-1,.39-1.54a6.23,6.23,0,0,1,5.26-4.72l5.77-.77A6.28,6.28,0,0,0,1989.17,863.31Zm-56.59,27.4c-12.69,1.7-27.77-11.18-29.48-23.86s10.1-24.39,22.78-26.08,23.88,11.14,25.59,23.83S1945.27,889,1932.58,890.71Z"/><path class="cls-11" d="M2026.83,508l-.33-12.31a21.11,21.11,0,0,0-21.67-20.53l-21.54.57a21,21,0,0,1-20.58-14.43q-.84-2.52-1.77-5a21,21,0,0,1,6-23l14.72-12.88a20.81,20.81,0,0,0,5.31-7.15,21.1,21.1,0,0,0-3.33-22.63l-24.41-27.88a21.1,21.1,0,0,0-29.76-2l-14.75,12.89a21,21,0,0,1-23.56,2.86q-2.34-1.25-4.72-2.4a21.09,21.09,0,0,1-11.61-22.32l2.43-15.13,1-6.14a21.09,21.09,0,0,0-17.47-24.19l-36.59-5.89A21.11,21.11,0,0,0,1800,317.94l-4.86,30.1A21.2,21.2,0,0,1,1780,365a149.22,149.22,0,0,0-19.57,7.16,21.19,21.19,0,0,1-24.69-5.27l-15.79-18.05a21.11,21.11,0,0,0-29.79-2l-27.86,24.4a21.1,21.1,0,0,0-2,29.77l21.25,24.29a21.09,21.09,0,0,1,3.54,22.39c0,.11-.09.21-.13.31-.76,1.71-1.48,3.42-2.17,5.15a21,21,0,0,1-19,13.19l-34.39.9a21.12,21.12,0,0,0-20.53,21.66l1,37.06a21.08,21.08,0,0,0,21.66,20.53l29.53-.79a21.11,21.11,0,0,1,20.37,13.85c0,.09.07.19.1.28a20.94,20.94,0,0,1-.55,15.89h0a21.22,21.22,0,0,1-5.36,7.22l-20.88,18.27a21.08,21.08,0,0,0-2,29.77h0l24.42,27.9a21.1,21.1,0,0,0,29.78,2l20.85-18.27a21.06,21.06,0,0,1,23.71-2.81l.29.15a21.11,21.11,0,0,1,11,22l-1,6.14-3.7,23a21.1,21.1,0,0,0,17.48,24.19l36.61,5.87a21.09,21.09,0,0,0,24.17-17.49l5.46-34a21,21,0,0,1,15.58-17.08q2.86-.7,5.71-1.55a21.08,21.08,0,0,1,21.73,6.47l21.25,24.29a21.09,21.09,0,0,0,29.77,2l27.89-24.41a20.84,20.84,0,0,0,5.32-7.15,21.1,21.1,0,0,0-3.34-22.62l-15.79-18h0a21.2,21.2,0,0,1-2-25.16A148.62,148.62,0,0,0,1957.7,568a21.18,21.18,0,0,1,18.8-12.77l30.47-.83a21.09,21.09,0,0,0,20.51-21.65Zm-150.89,64.49c-32.38,28.34-98.58,20.3-126.92-12.08s-17-87.08,15.39-115.39,87.58-13.15,115.94,19.23S1908.33,544.19,1875.94,572.53Z"/><path class="cls-9" d="M1818.94,744.71a23.78,23.78,0,0,1-3.45-.26l-36.62-5.87a21.74,21.74,0,0,1-18-24.93l4.7-29.14a20.51,20.51,0,0,0-10.71-21.38l-.33-.17a20.48,20.48,0,0,0-23,2.75L1710.72,684a21.56,21.56,0,0,1-14.3,5.39c-.48,0-1,0-1.46,0a21.59,21.59,0,0,1-14.92-7.38l-24.42-27.89a21.73,21.73,0,0,1,2-30.68l20.88-18.27a20.5,20.5,0,0,0,5.74-22.42l-.11-.27a20.29,20.29,0,0,0-3.66-6.26.24.24,0,0,1-.06-.08A20.34,20.34,0,0,0,1665,569h-.56l-29.54.8h-.6a21.76,21.76,0,0,1-21.71-21.17l-1-37.06a21.72,21.72,0,0,1,21.16-22.29l34.37-.91a20.38,20.38,0,0,0,18.43-12.79c.73-1.83,1.5-3.66,2.3-5.47a20.49,20.49,0,0,0-3.35-21.65l-.13-.15-21.2-24.22a21.78,21.78,0,0,1-3.43-23.3,21.55,21.55,0,0,1,5.47-7.37l27.87-24.4a21.62,21.62,0,0,1,14.28-5.38c.49,0,1,0,1.47.05a21.63,21.63,0,0,1,14.92,7.38l15.8,18a20.53,20.53,0,0,0,24,5.11,147.3,147.3,0,0,1,19.65-7.19,20.71,20.71,0,0,0,14.67-16.44l4.85-30.11a21.77,21.77,0,0,1,24.91-18l36.6,5.89a21.78,21.78,0,0,1,18,24.93l-3.42,21.26A20.55,20.55,0,0,0,1890,396.19q2.38,1.17,4.75,2.4a20.36,20.36,0,0,0,22.84-2.76l14.74-12.9A21.76,21.76,0,0,1,1963,385l24.4,27.87a.3.3,0,0,1,.09.13,21.69,21.69,0,0,1-2.12,30.54l-14.73,12.88a20.66,20.66,0,0,0-5.84,8.61,20,20,0,0,0,.06,13.68c.61,1.68,1.21,3.39,1.77,5.06a20.3,20.3,0,0,0,19.39,14h.57l21.55-.6h.55a21.76,21.76,0,0,1,21.77,21.17l1,37a21.78,21.78,0,0,1-21.14,22.3l-30.46.82a20.67,20.67,0,0,0-18.25,12.39,150.22,150.22,0,0,1-9.71,18.52,21.82,21.82,0,0,0-1.32,2.48,20.63,20.63,0,0,0,3.23,21.93l15.81,18a21.77,21.77,0,0,1-2,30.68L1939.67,707a21.76,21.76,0,0,1-30.67-2.05l-21.25-24.29a20.45,20.45,0,0,0-21.08-6.27c-2,.58-3.9,1.09-5.73,1.55a20.32,20.32,0,0,0-15.11,16.57l-5.45,34A21.77,21.77,0,0,1,1818.94,744.71Zm-73.84-85.34a21.42,21.42,0,0,1,10.05,2.49l.2.11a21.74,21.74,0,0,1,11.46,22.75l-4.7,29.14a20.45,20.45,0,0,0,17,23.46l36.61,5.87a20.44,20.44,0,0,0,23.44-17l5.45-34a21.64,21.64,0,0,1,16.06-17.61c1.82-.44,3.73-1,5.68-1.52a21.68,21.68,0,0,1,22.39,6.64l21.24,24.3a20.5,20.5,0,0,0,28.89,1.92l27.89-24.41a20.5,20.5,0,0,0,1.92-28.89l-15.81-18.05a21.9,21.9,0,0,1-3.42-23.29,24.37,24.37,0,0,1,1.39-2.62,148.3,148.3,0,0,0,9.63-18.36,21.93,21.93,0,0,1,19.37-13.14l30.46-.82a20.53,20.53,0,0,0,19.91-21l-1-37a20.42,20.42,0,0,0-20.48-19.92h-.53l-21.54.59H1986a21.57,21.57,0,0,1-20.6-14.88c-.55-1.68-1.14-3.36-1.75-5a21.3,21.3,0,0,1-.07-14.56,21.93,21.93,0,0,1,6.21-9.13l14.72-12.88a20.48,20.48,0,0,0,1.92-28.88l-.09-.14-24.32-27.74a20.49,20.49,0,0,0-28.87-1.93l-14.74,12.89a21.6,21.6,0,0,1-24.27,2.93q-2.34-1.21-4.71-2.38a21.83,21.83,0,0,1-12-23l3.42-21.27a20.5,20.5,0,0,0-17-23.46l-36.6-5.89a20.43,20.43,0,0,0-23.46,16.94l-4.85,30.11a22,22,0,0,1-15.57,17.45,145.45,145.45,0,0,0-19.49,7.14,21.8,21.8,0,0,1-25.43-5.44l-15.8-18.05a20.36,20.36,0,0,0-14-6.94c-.46,0-.93-.05-1.39-.05a20.32,20.32,0,0,0-13.44,5.07L1666,394.35a20.49,20.49,0,0,0-1.91,28.87l21.25,24.29.13.15a21.72,21.72,0,0,1,3.5,22.92c-.79,1.82-1.55,3.62-2.29,5.45a21.56,21.56,0,0,1-19.56,13.57l-34.37.91a20.44,20.44,0,0,0-19.92,21l1,37.06a20.46,20.46,0,0,0,20.43,19.92h.56l29.54-.8h.6a21.65,21.65,0,0,1,16.49,7.62l.06.09a21.38,21.38,0,0,1,3.84,6.58l.09.23a21.8,21.8,0,0,1-6.09,23.85l-20.88,18.27a20.15,20.15,0,0,0-5.15,6.94,20.48,20.48,0,0,0,3.24,22L1681,681.11a20.45,20.45,0,0,0,28.89,1.9l20.85-18.26A21.81,21.81,0,0,1,1745.1,659.37Z"/><polygon class="cls-3" points="1286.95 567.4 1277.55 662.75 1354.77 655.36 1348.05 557.33 1286.95 567.4"/><path class="cls-6" d="M1348.05,557.33l4.61,1.61a2.24,2.24,0,0,0,1.79-.15l2.67-1.46,17.68,93.5a2.2,2.2,0,0,1-1.94,2.6l-18.09,1.93Z"/><path class="cls-3" d="M1301.56,567.76c0-.82-.21-20.09,13-22.66a8.94,8.94,0,0,1,7.6,1.79c6.22,5.12,6.29,18.6,6.29,19.17h-3c0-.12-.07-12.63-5.19-16.84a5.78,5.78,0,0,0-5.1-1.15c-10.71,2.08-10.53,19.47-10.53,19.64Z"/><rect class="cls-3" x="1104.98" y="1035.22" width="94.99" height="84.98" transform="translate(-110.78 132.27) rotate(-6.27)"/><rect class="cls-3" x="1093.61" y="1021.22" width="106.41" height="17.53" transform="translate(-105.6 131.37) rotate(-6.27)"/><polygon class="cls-6" points="1101.66 1043.76 1195.39 1033.46 1196.29 1041.57 1101.66 1043.76"/><rect class="cls-6" x="1093.15" y="783.94" width="71.72" height="119.58" rx="9.41" transform="translate(-115.5 182.11) rotate(-8.77)"/><rect class="cls-3" x="1096.52" y="787.25" width="64.89" height="112.37" rx="7.16" transform="matrix(0.99, -0.15, 0.15, 0.99, -115.45, 182.1)"/><path class="cls-6" d="M1124.32,792l-7.06,1.09a3.94,3.94,0,0,1-4.51-3.3v-.06a4,4,0,0,1,3.31-4.51l7-1.09a3.94,3.94,0,0,1,4.51,3.3v.06A3.94,3.94,0,0,1,1124.32,792Z"/><path class="cls-3" d="M1406.62,1023,1394,1042.76a6.89,6.89,0,0,0,.48,8.09l14.87,18.14a6.9,6.9,0,0,1-7.08,11l-22.69-5.93a6.89,6.89,0,0,0-7.56,3l-12.65,19.75a6.9,6.9,0,0,1-12.7-3.32l-1.37-23.42a6.9,6.9,0,0,0-5.14-6.27l-22.7-5.93a6.9,6.9,0,0,1-.76-13.1l21.85-8.54a6.9,6.9,0,0,0,4.37-6.82l-1.37-23.42a6.9,6.9,0,0,1,12.22-4.78l14.87,18.14a6.9,6.9,0,0,0,7.85,2l21.85-8.54A6.9,6.9,0,0,1,1406.62,1023Z"/><path class="cls-6" d="M1284.94,948a33.25,33.25,0,0,1-32.8-28.18l-22.57-146.24a33.24,33.24,0,0,1,27.78-37.92l170-26.24a33.25,33.25,0,0,1,37.92,27.79l22.57,146.24A33.23,33.23,0,0,1,1460,921.33l-170,26.24A34.28,34.28,0,0,1,1284.94,948Zm147.51-237a31.54,31.54,0,0,0-4.83.38l-170,26.24a31.23,31.23,0,0,0-26.1,35.62l22.58,146.25a31.24,31.24,0,0,0,35.63,26.1l170-26.24a31.23,31.23,0,0,0,26.09-35.63l-22.57-146.24a31.29,31.29,0,0,0-30.8-26.48Z"/><path class="cls-10" d="M1463.15,919.68,1291.9,934.86a32.23,32.23,0,0,1-35-29.26l-13.07-147.41a32.23,32.23,0,0,1,29.26-35l171.25-15.18a32.23,32.23,0,0,1,34.95,29.26l13.07,147.41A32.24,32.24,0,0,1,1463.15,919.68Z"/><path class="cls-3" d="M1313.9,858.56a6.72,6.72,0,0,1-6-3.82L1282.15,801a6.7,6.7,0,0,1,5.37-9.56l156.78-15.68a6.74,6.74,0,0,1,5.66,2.2,6.64,6.64,0,0,1,1.57,5.84l-12.08,57.58a6.68,6.68,0,0,1-5.89,5.3l-119,11.89A4.92,4.92,0,0,1,1313.9,858.56Zm-26-60.36L1313.63,852l119.3-11.72,12.35-57.83-157.11,15.3-3.14,1.83Z"/><polygon class="cls-3" points="1406.48 846.83 1400.13 846.05 1408.16 781.82 1414.51 782.61 1406.48 846.83"/><polygon class="cls-3" points="1342.13 853.27 1321.54 791.92 1327.6 789.87 1348.19 851.23 1342.13 853.27"/><rect class="cls-3" x="1366.08" y="786.59" width="6.39" height="63.1" transform="translate(-74.65 140.4) rotate(-5.71)"/><path class="cls-3" d="M1339,790.6l-6.16-1.69,5-18a11.44,11.44,0,0,1,9.83-8.3l31.47-3.14a11.44,11.44,0,0,1,11.17,6l8.9,16.77-5.64,3-8.9-16.77a5,5,0,0,0-4.9-2.62L1348.26,769a5,5,0,0,0-4.31,3.63Z"/><path class="cls-6" d="M1374.18,768.31l-18.76,1.88a5.38,5.38,0,0,1-5.86-4.8h0a5.37,5.37,0,0,1,4.8-5.86l18.75-1.88a5.37,5.37,0,0,1,5.86,4.8h0A5.37,5.37,0,0,1,1374.18,768.31Z"/><path class="cls-4" d="M2196.55,1580.77c-.63,1.45-92.12,47.15-187.21,87.32h0c-45,19-90.92,36.83-128.29,48.08h0q-29.79-1.43-61.58-3.15c-16.48-17-36.4-38.76-57.71-63-72.92-82.86-162.08-194.08-185.1-237.16-17.51-32.73-36-73.55,4.17-147.68-8.81-20.2-23.35-46.42-40.72-76q-1.27-2.14-2.54-4.32-4-6.75-8.14-13.71c-6.92-11.63-14.15-23.64-21.55-35.94-38.82-64.48-82.11-136.35-107.49-195.56-2.76-6.45-5.32-12.74-7.61-18.85-17.54-46.41-21.17-82.7,1.67-97.56a31.58,31.58,0,0,1,3.62-2c16.79-8,37.23.73,51.13,15a69.76,69.76,0,0,1,4.84,5.52q4.15,5.29,8.74,11.26c10.73,14,23.11,30.54,36.34,48.27,7.74,10.36,15.77,21.12,23.92,32l7.68,10.23h0q7.55,10,15.16,20h0l.5.66c49.24,64.67,97.91,124.21,112.63,119.49,16.31-5.22,4.14-27.53,40.48-40,29.36-10.07,42.59,15.21,58.68,12.18,23.17-4.39,18.11-12,36.91-24.86,28.45-19.55,53.39,18.8,74.78,2.75s32.46-54,77.44-36.39c21.72,8.48,40.86,30.11,78.76,99.67,13.93,25.55,30.39,57.58,50.44,97.79,1.24,2.49,2.5,5.11,3.76,7.85,6.25,13.47,12.81,29.86,19.51,48.21h0c.89,2.4,1.77,4.82,2.64,7.28.55,1.5,1.08,3,1.61,4.56,5.58,15.76,11.22,32.71,16.84,50.3.14.43.28.86.41,1.29q2.34,7.32,4.66,14.78,2,6.36,4,12.78v0c11.05,36.11,21.77,73.61,31.35,108.16.43,1.55.86,3.09,1.28,4.62q2.27,8.19,4.43,16.11C2180.85,1521.58,2191.68,1563.39,2196.55,1580.77Z"/><path class="cls-5" d="M1610.76,1360.24c-7.31-33.82-32.7-93.14-33-93.74l6.08-2.6c1,2.44,25.9,60.49,33.34,94.95Z"/><path class="cls-5" d="M1422.67,837.84s23.44,18.16,26.49,31.48-32.91,31.15-42.12,24.59-20.66-32.22-19.31-36.48S1416.79,832.9,1422.67,837.84Z"/><path class="cls-8" d="M2377.77,1688.87a434.52,434.52,0,0,1-66.46,20.32q-19,4.2-38.57,6.82c-130.71,17.47-264,18.46-460.55,9.06h0q-27.93-1.33-57.63-2.94l-14.41-36.81a30.08,30.08,0,0,1,21.6-35.27,24.82,24.82,0,0,1,3-.66,919.94,919.94,0,0,0,150.38-38.08c121.3-42,202.1-99.89,243.61-135a44.29,44.29,0,0,1,8.26-5.5,43,43,0,0,1,53.71,12.35c14.45,19.08,45.19,60.59,82.82,112C2312.6,1607.53,2342.7,1645.2,2377.77,1688.87Z"/><rect class="cls-3" x="1061.82" y="578.98" width="94.99" height="84.98" transform="translate(-61.22 124.83) rotate(-6.27)"/><rect class="cls-3" x="1050.45" y="564.99" width="106.41" height="17.53" transform="translate(-56.05 123.93) rotate(-6.27)"/><polygon class="cls-6" points="1058.49 587.52 1152.23 577.23 1153.12 585.33 1058.49 587.52"/></g></svg>